<?xml version="1.0" standalone="no"?>
<!DOCTYPE svg PUBLIC "-//W3C//DTD SVG 20010904//EN"
 "http://www.w3.org/TR/2001/REC-SVG-20010904/DTD/svg10.dtd">
<svg version="1.0" xmlns="http://www.w3.org/2000/svg"
 width="940.000000pt" height="788.000000pt" viewBox="0 0 940.000000 788.000000"
 preserveAspectRatio="xMidYMid meet">

<g transform="translate(0.000000,788.000000) scale(0.100000,-0.100000)"
fill="#000000" stroke="none">
<path d="M4315 6331 c-87 -18 -189 -67 -265 -128 -66 -52 -155 -175 -180 -248
-30 -83 -33 -88 -66 -104 -16 -8 -37 -18 -46 -23 -10 -4 -23 -8 -29 -8 -32 0
-369 -180 -434 -232 -5 -5 -50 -40 -100 -80 -116 -92 -218 -196 -247 -250 -30
-58 -31 -163 -1 -228 38 -84 107 -141 193 -160 47 -10 63 -10 113 5 62 18 84
33 192 134 82 77 113 103 152 128 15 9 30 20 33 23 25 27 260 147 306 156 30
6 39 2 77 -33 78 -71 139 -108 252 -150 78 -28 288 -26 375 5 88 31 185 91
240 146 50 51 60 53 116 30 184 -76 339 -173 466 -292 86 -81 133 -112 186
-122 164 -31 331 104 332 268 0 94 -91 215 -254 340 -34 25 -63 49 -66 53 -24
31 -313 196 -420 239 -30 12 -64 26 -75 30 -11 5 -35 13 -54 19 -40 13 -71 38
-71 57 0 18 -49 122 -74 158 -87 124 -195 207 -326 250 -61 21 -257 30 -325
17z"/>
<path d="M6065 4668 c-66 -23 -87 -37 -125 -79 -67 -76 -75 -165 -30 -349 25
-104 38 -406 22 -518 -12 -82 -28 -107 -75 -118 -40 -9 -111 -48 -167 -93 -40
-32 -59 -51 -122 -124 -30 -34 -86 -159 -102 -229 -20 -85 -20 -183 0 -261
l16 -61 -34 -31 c-89 -83 -226 -173 -358 -237 -75 -37 -248 -98 -275 -98 -30
0 -91 -36 -130 -75 -51 -52 -81 -154 -64 -220 6 -22 13 -53 16 -68 8 -44 99
-130 157 -150 57 -20 134 -22 185 -6 361 114 554 217 805 432 57 48 74 58 95
53 130 -30 304 -30 385 1 213 80 341 214 410 427 22 67 22 245 0 317 -36 121
-78 193 -168 286 l-60 63 12 60 c19 88 26 405 13 540 -10 104 -18 153 -50 300
-13 63 -58 145 -97 179 -66 58 -183 85 -259 59z"/>
<path d="M2660 4642 c-53 -20 -114 -78 -134 -127 -15 -35 -34 -108 -56 -215
-7 -30 -18 -129 -25 -220 -12 -142 -12 -188 0 -330 8 -91 19 -182 24 -204 12
-49 8 -59 -51 -126 -88 -99 -151 -265 -151 -395 0 -51 21 -155 42 -210 33 -87
72 -146 146 -220 80 -80 143 -119 255 -159 60 -21 208 -30 290 -18 77 12 80
10 176 -71 102 -86 264 -191 394 -253 63 -31 123 -60 132 -65 10 -5 23 -9 29
-9 6 0 25 -6 42 -13 103 -44 191 -60 272 -50 87 10 157 58 193 132 22 47 24
195 2 237 -48 94 -90 125 -235 173 -135 45 -287 120 -387 191 -120 86 -141
108 -133 139 31 130 37 198 26 276 -11 74 -29 132 -53 178 -5 10 -19 37 -30
60 -12 23 -56 76 -97 117 -79 78 -166 130 -279 166 -61 19 -60 15 -70 179 -12
183 4 362 50 543 15 62 -11 153 -60 209 -76 86 -213 124 -312 85z"/>
<path d="M4280 4501 c-111 -32 -220 -100 -291 -177 -40 -45 -99 -128 -99 -141
0 -4 -6 -20 -14 -35 -46 -89 -62 -297 -31 -403 52 -175 185 -332 340 -401 150
-66 344 -71 495 -12 19 7 37 15 40 18 3 3 25 16 50 29 119 64 236 221 277 369
20 73 22 242 4 302 -37 126 -83 203 -170 291 -62 63 -89 81 -197 136 -84 43
-298 56 -404 24z"/>
</g>
</svg>
